<?xml version="1.0" encoding="UTF-8" standalone="no"?>
<!-- Created with Inkscape (http://www.inkscape.org/) -->

<svg
   width="90.457611mm"
   height="90.457932mm"
   viewBox="0 0 90.457611 90.457932"
   version="1.1"
   id="svg5"
   xmlns="http://www.w3.org/2000/svg"
   xmlns:svg="http://www.w3.org/2000/svg">
  <defs
     id="defs2" />
  <g
     id="layer1"
     transform="translate(-110.71108,-112.44989)">
    <path
       id="path10195"
       style="fill:#551683;fill-opacity:1;stroke:none;stroke-width:0.730211;stroke-opacity:1"
       d="m 157.00551,112.46242 a 45.229584,45.229584 0 0 0 -3.34553,0.045 45.229584,45.229584 0 0 0 -31.36811,14.98771 c 0.0454,0.48914 0.13128,1.00714 0.2651,1.55701 l 15.99592,63.48863 0.63975,3.30523 1.06661,-3.30523 13.4369,-45.58533 c 0.21328,-0.55088 0.21291,-2.20321 0.21291,-3.44268 0,-1.23948 -0.63952,-3.99405 -1.06609,-5.64669 l -1.5999,-6.33501 c -0.85312,-3.44299 -3.62552,-9.64049 -9.27747,-10.05365 -0.63984,-0.82632 -0.63984,-2.34145 0,-3.16777 4.26562,0.13772 6.82484,0.68885 10.98383,0.68885 4.26562,0 8.21138,-0.55113 13.22348,-0.68885 0.63985,0.82632 0.63985,2.34145 0,3.16777 -3.62578,0.41316 -7.89126,2.75451 -5.97173,10.05365 l 15.35617,61.28515 0.74673,2.89233 0.7462,-2.89233 16.33079,-60.48417 a 45.229584,45.229584 0 0 0 -36.37556,-19.86962 z m 39.19399,24.67394 -16.63567,59.10957 a 45.229584,45.229584 0 0 0 21.60488,-38.56664 l -0.10232,-3.03754 a 45.229584,45.229584 0 0 0 -4.86689,-17.50539 z m -80.67931,0.29869 a 45.229584,45.229584 0 0 0 -4.78524,21.76405 45.229584,45.229584 0 0 0 19.69751,35.79833 z m 40.73498,15.99334 c -0.5332,0 -1.06637,1.79005 -1.49293,3.44269 l -13.13305,43.6826 a 45.229584,45.229584 0 0 0 15.06988,2.34921 45.229584,45.229584 0 0 0 12.20804,-1.89394 l -11.15849,-43.72446 c -0.53321,-1.79036 -1.06689,-3.8561 -1.49345,-3.8561 z" />
  </g>
</svg>
