<svg width="172" height="172" viewBox="0 0 172 172" fill="none" xmlns="http://www.w3.org/2000/svg">
<g clip-path="url(#clip0_2_358)">
<circle cx="86" cy="86" r="86" fill="white"/>
<circle cx="86" cy="86" r="85" fill="black"/>
<path d="M129.229 134.317V135.47H125.966V144H124.635V135.47H121.372V134.317H129.229Z" fill="white"/>
<path d="M117.166 138.753C117.781 138.753 118.267 138.63 118.623 138.384C118.983 138.138 119.163 137.694 119.163 137.052C119.163 136.362 118.913 135.892 118.412 135.642C118.144 135.51 117.786 135.444 117.337 135.444H114.134V138.753H117.166ZM112.822 134.317H117.304C118.043 134.317 118.651 134.424 119.13 134.64C120.04 135.053 120.495 135.815 120.495 136.927C120.495 137.507 120.374 137.982 120.132 138.351C119.895 138.72 119.561 139.017 119.13 139.241C119.508 139.395 119.792 139.597 119.981 139.847C120.174 140.098 120.282 140.504 120.304 141.067L120.35 142.365C120.363 142.734 120.394 143.009 120.442 143.189C120.521 143.497 120.662 143.695 120.864 143.782V144H119.256C119.212 143.917 119.177 143.809 119.15 143.677C119.124 143.545 119.102 143.29 119.084 142.912L119.005 141.297C118.974 140.665 118.739 140.24 118.3 140.025C118.049 139.906 117.656 139.847 117.12 139.847H114.134V144H112.822V134.317Z" fill="white"/>
<path d="M103.785 134.317H110.844V135.503H105.063V138.443H110.409V139.564H105.063V142.846H110.943V144H103.785V134.317Z" fill="white"/>
<path d="M93.9365 134.317H95.2615V138.318H100.298V134.317H101.623V144H100.298V139.471H95.2615V144H93.9365V134.317Z" fill="white"/>
<path d="M88.228 134.053C89.4541 134.053 90.4055 134.376 91.0823 135.022C91.759 135.668 92.1348 136.402 92.2095 137.224H90.9307C90.7856 136.6 90.4956 136.105 90.0605 135.74C89.6299 135.376 89.0234 135.193 88.2412 135.193C87.2876 135.193 86.5164 135.53 85.9275 136.202C85.343 136.87 85.0508 137.896 85.0508 139.28C85.0508 140.414 85.3145 141.335 85.8418 142.042C86.3735 142.745 87.1646 143.097 88.2148 143.097C89.1816 143.097 89.9177 142.726 90.4231 141.983C90.6912 141.592 90.8911 141.078 91.0229 140.44H92.3018C92.1875 141.46 91.8096 142.315 91.168 143.005C90.3989 143.835 89.3618 144.25 88.0566 144.25C86.9316 144.25 85.9868 143.91 85.2222 143.229C84.2158 142.328 83.7126 140.937 83.7126 139.056C83.7126 137.628 84.0906 136.457 84.8464 135.543C85.6638 134.55 86.791 134.053 88.228 134.053Z" fill="white"/>
<path d="M80.687 134.317H82.012V144H80.687V134.317Z" fill="white"/>
<path d="M72.2429 140.875C72.2737 141.425 72.4033 141.871 72.6318 142.214C73.0669 142.855 73.8337 143.176 74.9324 143.176C75.4246 143.176 75.8728 143.106 76.2771 142.965C77.0593 142.693 77.4504 142.205 77.4504 141.502C77.4504 140.974 77.2857 140.599 76.9561 140.375C76.6221 140.155 76.0991 139.964 75.3872 139.801L74.0754 139.504C73.2185 139.311 72.6121 139.098 72.2561 138.865C71.6409 138.461 71.3333 137.856 71.3333 137.052C71.3333 136.182 71.6343 135.468 72.2363 134.91C72.8384 134.352 73.6909 134.073 74.794 134.073C75.8091 134.073 76.6704 134.319 77.3779 134.811C78.0899 135.299 78.4458 136.081 78.4458 137.158H77.2131C77.1472 136.639 77.0066 136.241 76.7913 135.965C76.3914 135.459 75.7124 135.207 74.7544 135.207C73.981 135.207 73.4251 135.369 73.0867 135.694C72.7483 136.02 72.5791 136.397 72.5791 136.828C72.5791 137.303 72.7769 137.65 73.1724 137.87C73.4316 138.01 74.0183 138.186 74.9324 138.397L76.2903 138.707C76.9451 138.856 77.4504 139.061 77.8064 139.32C78.4216 139.772 78.7293 140.429 78.7293 141.291C78.7293 142.363 78.3381 143.13 77.5559 143.591C76.7781 144.053 75.8728 144.283 74.8401 144.283C73.636 144.283 72.6934 143.976 72.0122 143.361C71.3311 142.75 70.9971 141.921 71.0103 140.875H72.2429Z" fill="white"/>
<path d="M66.1323 138.753C66.7476 138.753 67.2332 138.63 67.5891 138.384C67.9495 138.138 68.1296 137.694 68.1296 137.052C68.1296 136.362 67.8792 135.892 67.3782 135.642C67.1101 135.51 66.752 135.444 66.3037 135.444H63.1001V138.753H66.1323ZM61.7883 134.317H66.2708C67.009 134.317 67.6177 134.424 68.0967 134.64C69.0063 135.053 69.4612 135.815 69.4612 136.927C69.4612 137.507 69.3403 137.982 69.0986 138.351C68.8613 138.72 68.5273 139.017 68.0967 139.241C68.4746 139.395 68.7581 139.597 68.947 139.847C69.1404 140.098 69.248 140.504 69.27 141.067L69.3162 142.365C69.3293 142.734 69.3601 143.009 69.4084 143.189C69.4875 143.497 69.6282 143.695 69.8303 143.782V144H68.2219C68.178 143.917 68.1428 143.809 68.1165 143.677C68.0901 143.545 68.0681 143.29 68.0505 142.912L67.9714 141.297C67.9407 140.665 67.7056 140.24 67.2661 140.025C67.0156 139.906 66.6223 139.847 66.0862 139.847H63.1001V144H61.7883V134.317Z" fill="white"/>
<path d="M52.751 134.317H59.8108V135.503H54.0298V138.443H59.3757V139.564H54.0298V142.846H59.9097V144H52.751V134.317Z" fill="white"/>
<path d="M44.386 134.317L47.1677 142.563L49.9165 134.317H51.3865L47.8533 144H46.4624L42.9358 134.317H44.386Z" fill="white"/>
<path d="M121.26 127H119.677L123.145 122.036L119.895 117.317H121.536L124.008 121.021L126.46 117.317H128.023L124.773 122.036L128.181 127H126.553L123.942 123.019L121.26 127Z" fill="white"/>
<path d="M114.101 117.053C115.81 117.053 117.076 117.602 117.898 118.701C118.539 119.558 118.86 120.654 118.86 121.99C118.86 123.436 118.493 124.638 117.759 125.596C116.898 126.721 115.67 127.283 114.074 127.283C112.585 127.283 111.414 126.791 110.561 125.807C109.801 124.858 109.421 123.658 109.421 122.208C109.421 120.898 109.746 119.778 110.396 118.846C111.231 117.651 112.466 117.053 114.101 117.053ZM114.233 126.11C115.388 126.11 116.223 125.697 116.738 124.871C117.256 124.04 117.515 123.087 117.515 122.01C117.515 120.872 117.217 119.956 116.619 119.261C116.026 118.567 115.213 118.22 114.18 118.22C113.178 118.22 112.361 118.565 111.728 119.255C111.095 119.94 110.779 120.953 110.779 122.293C110.779 123.366 111.049 124.271 111.589 125.009C112.134 125.743 113.015 126.11 114.233 126.11Z" fill="white"/>
<path d="M104.246 117.053C105.472 117.053 106.424 117.376 107.1 118.022C107.777 118.668 108.153 119.402 108.228 120.224H106.949C106.804 119.6 106.514 119.105 106.079 118.74C105.648 118.376 105.042 118.193 104.259 118.193C103.306 118.193 102.534 118.53 101.946 119.202C101.361 119.87 101.069 120.896 101.069 122.28C101.069 123.414 101.333 124.335 101.86 125.042C102.392 125.745 103.183 126.097 104.233 126.097C105.2 126.097 105.936 125.726 106.441 124.983C106.709 124.592 106.909 124.078 107.041 123.44H108.32C108.206 124.46 107.828 125.315 107.186 126.005C106.417 126.835 105.38 127.25 104.075 127.25C102.95 127.25 102.005 126.91 101.24 126.229C100.234 125.328 99.7307 123.937 99.7307 122.056C99.7307 120.628 100.109 119.457 100.865 118.543C101.682 117.55 102.809 117.053 104.246 117.053Z" fill="white"/>
<path d="M92.0183 123.875C92.0491 124.425 92.1787 124.871 92.4072 125.214C92.8423 125.855 93.6091 126.176 94.7078 126.176C95.2 126.176 95.6482 126.106 96.0525 125.965C96.8347 125.693 97.2258 125.205 97.2258 124.502C97.2258 123.974 97.061 123.599 96.7315 123.375C96.3975 123.155 95.8745 122.964 95.1626 122.801L93.8508 122.504C92.9939 122.311 92.3875 122.098 92.0315 121.865C91.4163 121.461 91.1087 120.856 91.1087 120.052C91.1087 119.182 91.4097 118.468 92.0117 117.91C92.6138 117.352 93.4663 117.073 94.5693 117.073C95.5845 117.073 96.4458 117.319 97.1533 117.811C97.8652 118.299 98.2212 119.081 98.2212 120.158H96.9885C96.9226 119.639 96.782 119.241 96.5667 118.965C96.1668 118.459 95.4878 118.207 94.5298 118.207C93.7564 118.207 93.2004 118.369 92.8621 118.694C92.5237 119.02 92.3545 119.397 92.3545 119.828C92.3545 120.303 92.5523 120.65 92.9478 120.87C93.207 121.01 93.7937 121.186 94.7078 121.397L96.0657 121.707C96.7205 121.856 97.2258 122.061 97.5818 122.32C98.197 122.772 98.5046 123.429 98.5046 124.291C98.5046 125.363 98.1135 126.13 97.3313 126.591C96.5535 127.053 95.6482 127.283 94.6155 127.283C93.4114 127.283 92.4688 126.976 91.7876 126.361C91.1065 125.75 90.7725 124.921 90.7857 123.875H92.0183Z" fill="white"/>
<path d="M87.7007 117.317H89.0256V127H87.7007V117.317Z" fill="white"/>
<path d="M77.6812 117.317H79.0061V121.318H84.0422V117.317H85.3672V127H84.0422V122.471H79.0061V127H77.6812V117.317Z" fill="white"/>
<path d="M64.135 117.317H65.6841L70.5752 125.161V117.317H71.821V127H70.3511L65.3875 119.162V127H64.135V117.317Z" fill="white"/>
<path d="M57.8069 117.053C59.5164 117.053 60.782 117.602 61.6038 118.701C62.2454 119.558 62.5662 120.654 62.5662 121.99C62.5662 123.436 62.1992 124.638 61.4653 125.596C60.604 126.721 59.3757 127.283 57.7805 127.283C56.2908 127.283 55.1196 126.791 54.2671 125.807C53.5068 124.858 53.1267 123.658 53.1267 122.208C53.1267 120.898 53.4519 119.778 54.1023 118.846C54.9373 117.651 56.1721 117.053 57.8069 117.053ZM57.9387 126.11C59.0945 126.11 59.9294 125.697 60.4436 124.871C60.9622 124.04 61.2214 123.087 61.2214 122.01C61.2214 120.872 60.9226 119.956 60.325 119.261C59.7317 118.567 58.9187 118.22 57.886 118.22C56.884 118.22 56.0667 118.565 55.4338 119.255C54.801 119.94 54.4846 120.953 54.4846 122.293C54.4846 123.366 54.7549 124.271 55.2954 125.009C55.8403 125.743 56.7214 126.11 57.9387 126.11Z" fill="white"/>
<path d="M45.3879 117.317L48.1697 125.563L50.9185 117.317H52.3884L48.8552 127H47.4644L43.9377 117.317H45.3879Z" fill="white"/>
<g clip-path="url(#clip1_2_358)">
<rect x="13" y="93.5" width="47.5617" height="1" fill="white"/>
<path d="M100.446 93.9297C100.175 93.9297 99.9409 93.9635 99.743 94.0312C99.394 94.1562 99.131 94.388 98.9539 94.7266L96.9539 94.6328L97.7508 88.375H103.993V90.2656H99.3602L98.9539 92.7422C99.2977 92.5182 99.5659 92.3698 99.7586 92.2969C100.082 92.1771 100.475 92.1172 100.938 92.1172C101.876 92.1172 102.694 92.4323 103.391 93.0625C104.089 93.6927 104.438 94.6094 104.438 95.8125C104.438 96.8594 104.102 97.7943 103.43 98.6172C102.759 99.4401 101.753 99.8516 100.415 99.8516C99.3367 99.8516 98.4513 99.5625 97.7586 98.9844C97.0659 98.4062 96.6805 97.5859 96.6024 96.5234H98.8211C98.9096 97.0078 99.0789 97.3828 99.3289 97.6484C99.5789 97.9089 99.9435 98.0391 100.423 98.0391C100.975 98.0391 101.394 97.8464 101.68 97.4609C101.972 97.0703 102.118 96.5807 102.118 95.9922C102.118 95.4141 101.983 94.9271 101.712 94.5312C101.441 94.1302 101.019 93.9297 100.446 93.9297Z" fill="#DA291C"/>
<path d="M92.0367 90.5312C91.7711 90.2135 91.3908 90.0547 90.8961 90.0547C90.219 90.0547 89.758 90.3073 89.5132 90.8125C89.3726 91.1042 89.2893 91.5677 89.2632 92.2031H87.0992C87.1356 91.2396 87.3101 90.4609 87.6226 89.8672C88.2164 88.737 89.2711 88.1719 90.7867 88.1719C91.9846 88.1719 92.9377 88.5052 93.6461 89.1719C94.3544 89.8333 94.7086 90.7109 94.7086 91.8047C94.7086 92.6432 94.4586 93.388 93.9586 94.0391C93.6304 94.4714 93.0914 94.9531 92.3414 95.4844L91.4507 96.1172C90.8935 96.513 90.5106 96.7995 90.3023 96.9766C90.0992 97.1536 89.9273 97.3594 89.7867 97.5938H94.732V99.5547H86.9742C86.995 98.7422 87.1695 98 87.4976 97.3281C87.8153 96.5729 88.5653 95.7734 89.7476 94.9297C90.7737 94.1953 91.4377 93.6693 91.7398 93.3516C92.2033 92.8568 92.4351 92.3151 92.4351 91.7266C92.4351 91.2474 92.3023 90.849 92.0367 90.5312Z" fill="#DA291C"/>
<path d="M81.1742 99.8359C79.7315 99.8359 78.7185 99.3307 78.1351 98.3203C77.557 97.3099 77.2679 95.8698 77.2679 94C77.2679 92.1302 77.557 90.6875 78.1351 89.6719C78.7185 88.6562 79.7315 88.1484 81.1742 88.1484C82.6169 88.1484 83.6299 88.6562 84.2133 89.6719C84.7914 90.6875 85.0804 92.1302 85.0804 94C85.0804 95.8698 84.7888 97.3099 84.2054 98.3203C83.6273 99.3307 82.6169 99.8359 81.1742 99.8359ZM82.4789 96.9844C82.682 96.2969 82.7836 95.3021 82.7836 94C82.7836 92.6354 82.6794 91.625 82.4711 90.9688C82.2679 90.3125 81.8357 89.9844 81.1742 89.9844C80.5127 89.9844 80.0752 90.3125 79.8617 90.9688C79.6482 91.625 79.5414 92.6354 79.5414 94C79.5414 95.3021 79.6482 96.2995 79.8617 96.9922C80.0752 97.6797 80.5127 98.0234 81.1742 98.0234C81.8357 98.0234 82.2705 97.6771 82.4789 96.9844Z" fill="#DA291C"/>
<path d="M72.6242 90.5312C72.3586 90.2135 71.9784 90.0547 71.4836 90.0547C70.8065 90.0547 70.3456 90.3073 70.1008 90.8125C69.9601 91.1042 69.8768 91.5677 69.8508 92.2031H67.6867C67.7232 91.2396 67.8976 90.4609 68.2101 89.8672C68.8039 88.737 69.8586 88.1719 71.3742 88.1719C72.5721 88.1719 73.5252 88.5052 74.2336 89.1719C74.9419 89.8333 75.2961 90.7109 75.2961 91.8047C75.2961 92.6432 75.0461 93.388 74.5461 94.0391C74.218 94.4714 73.6789 94.9531 72.9289 95.4844L72.0383 96.1172C71.481 96.513 71.0982 96.7995 70.8898 96.9766C70.6867 97.1536 70.5148 97.3594 70.3742 97.5938H75.3195V99.5547H67.5617C67.5825 98.7422 67.757 98 68.0851 97.3281C68.4029 96.5729 69.1529 95.7734 70.3351 94.9297C71.3612 94.1953 72.0252 93.6693 72.3273 93.3516C72.7909 92.8568 73.0226 92.3151 73.0226 91.7266C73.0226 91.2474 72.8898 90.849 72.6242 90.5312Z" fill="#DA291C"/>
<rect x="111.438" y="93.5" width="47.5617" height="1" fill="white"/>
</g>
<g clip-path="url(#clip2_2_358)">
<mask id="mask0_2_358" style="mask-type:luminance" maskUnits="userSpaceOnUse" x="37" y="22" width="98" height="48">
<path d="M134.973 22H37.1067V69.6H134.973V22Z" fill="white"/>
</mask>
<g mask="url(#mask0_2_358)">
<path d="M85.7734 42.5067C86.3467 36.8 89.4534 33.4267 89.4534 30.1467C89.4534 27.76 88.56 25.7067 85.7734 22.6133C82.9867 25.7067 82.0934 27.76 82.0934 30.1467C82.0934 33.4267 85.2 36.8 85.7734 42.5067ZM79.7734 41.7733C78.3067 43.0667 75.4267 42.24 75.4267 39.0933C75.4267 37.32 77.28 35.8 79.0667 35.8C82.6 35.8 84.2134 39.56 84.3067 41.3067C84.3867 42.68 83.76 44.8667 81.4534 44.8933C82.5334 44.36 82.88 43.0667 82.7867 42.1467C82.6667 41.0533 81.96 39.6267 80.4267 39.6267C79.5734 39.6267 78.9334 40.1733 78.9334 40.7733C78.9467 41.32 79.2667 41.76 79.7734 41.7733ZM91.7867 41.7733C93.2534 43.0667 96.1334 42.24 96.1334 39.0933C96.1334 37.32 94.28 35.8 92.4934 35.8C88.96 35.8 87.3467 39.56 87.2534 41.3067C87.1734 42.68 87.8 44.8667 90.0934 44.8933C89.0134 44.36 88.6534 43.0667 88.76 42.1467C88.88 41.0533 89.5867 39.6267 91.12 39.6267C91.9734 39.6267 92.6134 40.1733 92.6134 40.7733C92.6134 41.32 92.2934 41.76 91.7867 41.7733Z" fill="#DA291C"/>
<path d="M60.7067 69.36H58.08V50.9067H60.7067V69.36ZM53.9334 69.36H51.3067V61.32H40.32V69.36H37.6934V50.9067H40.32V58.9467H51.3067V50.9067H53.9334V69.36ZM126.48 59.8133L134.36 69.3733H131.16L124.88 61.7333L118.52 69.3733H115.293L123.253 59.8133L115.867 50.9067H119.08L124.867 57.9467L130.627 50.9067H133.827L126.48 59.8133Z" fill="white"/>
<path d="M106.253 50.6533C112.347 50.6533 116.187 54.9867 116.187 60.1333C116.187 65.12 112.453 69.6133 106.2 69.6133C100.16 69.6133 96.3467 65.1467 96.3467 60.1333C96.3334 55.0133 100.267 50.6533 106.253 50.6533ZM106.253 67.1733C110.4 67.1733 113.453 64.1733 113.453 60.1333C113.453 56.0667 110.4 53.0933 106.253 53.0933C102.133 53.0933 99.08 56.0667 99.08 60.1333C99.0667 64.1733 102.133 67.1733 106.253 67.1733ZM93.9067 64.6933C92.6133 66.2267 90.64 67.1733 88.32 67.1733C84.2 67.1733 81.1467 64.1733 81.1467 60.1333C81.1467 56.0667 84.2 53.0933 88.32 53.0933C90.5733 53.0933 92.5067 53.9733 93.8 55.44L95.1867 53.1067C93.4933 51.5867 91.1467 50.6667 88.32 50.6667C82.3333 50.6667 78.4133 55.0267 78.4133 60.1467C78.4133 65.16 82.2267 69.6267 88.2667 69.6267C91.2267 69.6267 93.6133 68.6267 95.32 67.04L93.9067 64.6933ZM75.0533 54.3467C73.5733 53.0933 71.7733 52.8267 70.5333 52.8267C68.6533 52.8267 67.0133 53.6667 67.0133 55.2267C67.0133 58.7733 76.4533 58.7867 76.4533 64.6533C76.4533 68.48 72.5467 69.7467 69.5467 69.6C67.5067 69.4933 65.9733 69.0933 64.3467 68.0267V65.4C65.96 66.44 67.4667 67 69.1867 67.1333C71.1067 67.2933 73.8667 66.84 73.8667 64.56C73.8667 60.7467 64.3467 60.6267 64.3467 55.56C64.3467 52.56 67.0133 50.6267 70.24 50.6267C72.3333 50.6267 73.72 51.08 75.0533 51.84V54.3467Z" fill="white"/>
</g>
</g>
</g>
<defs>
<clipPath id="clip0_2_358">
<rect width="172" height="172" fill="white"/>
</clipPath>
<clipPath id="clip1_2_358">
<rect width="146" height="11.7031" fill="white" transform="translate(13 88.1484)"/>
</clipPath>
<clipPath id="clip2_2_358">
<rect width="98" height="47.6" fill="white" transform="translate(37 22)"/>
</clipPath>
</defs>
</svg>
